<svg xmlns="http://www.w3.org/2000/svg" viewBox="0 0 128 128" role="img" aria-label="Avatar do Huguinho">
  <defs>
    <linearGradient id="bg" x1="0" y1="0" x2="1" y2="1">
      <stop offset="0%" stop-color="#ffe6bf"/>
      <stop offset="100%" stop-color="#ffd08a"/>
    </linearGradient>
  </defs>
  <circle cx="64" cy="64" r="62" fill="url(#bg)"/>
  <ellipse cx="64" cy="60" rx="34" ry="38" fill="#f2c18d"/>
  <path d="M36 54c2-14 14-25 28-25s26 11 28 25" fill="#5f3b1d"/>
  <circle cx="50" cy="58" r="4" fill="#2b1a0f"/>
  <circle cx="78" cy="58" r="4" fill="#2b1a0f"/>
  <path d="M49 74c5 4 24 4 30 0" stroke="#8b4f2a" stroke-width="3" fill="none" stroke-linecap="round"/>
  <path d="M34 78c3-12 15-20 30-20s27 8 30 20c-5 11-16 21-30 21S39 89 34 78z" fill="#6f4120"/>
  <path d="M45 68c3 2 8 3 19 3s16-1 19-3" stroke="#4a2a14" stroke-width="3" fill="none" stroke-linecap="round"/>
  <circle cx="36" cy="57" r="6" fill="#f2c18d"/>
  <circle cx="92" cy="57" r="6" fill="#f2c18d"/>
</svg>
